<svg width="24" height="24" viewBox="0 0 24 24" fill="none" xmlns="http://www.w3.org/2000/svg">
<path d="M21.3592 5.15478C20.8012 4.44978 19.9005 4.10553 19.0012 4.10553H17.4772V2.79828C17.4772 2.38428 17.1412 2.04828 16.7272 2.04828C16.3132 2.04828 15.9772 2.38428 15.9772 2.79828V4.10553H8.02199V2.79828C8.02199 2.38428 7.68599 2.04828 7.27199 2.04828C6.85799 2.04828 6.52199 2.38428 6.52199 2.79828V4.10553H4.99799C4.09874 4.10553 3.19799 4.44978 2.63999 5.15478C2.24024 5.66178 2.00024 6.30153 2.00024 6.99978V18.9998C2.00024 20.6565 3.34349 21.9998 5.00024 21.9998H19.0005C20.6572 21.9998 22.0005 20.6565 22.0005 18.9998V6.99978C22.0005 6.30153 21.7605 5.66178 21.3592 5.15478ZM5.00024 5.49978H6.52199V6.79878C6.52199 7.21278 6.85799 7.54878 7.27199 7.54878C7.68599 7.54878 8.02199 7.21278 8.02199 6.79878V5.49978H15.978V6.79878C15.978 7.21278 16.314 7.54878 16.728 7.54878C17.142 7.54878 17.478 7.21278 17.478 6.79878V5.49978H18.9997C19.8277 5.49978 20.4997 6.17178 20.4997 6.99978V9.50778H3.49949V6.99978C3.49949 6.17178 4.17224 5.49978 5.00024 5.49978ZM18.9997 20.4998H4.99949C4.17149 20.4998 3.49949 19.8278 3.49949 18.9998V11.0078H20.4997V18.9998C20.4997 19.8278 19.8277 20.4998 18.9997 20.4998ZM8.27174 14.1938C8.27174 14.7458 7.82399 15.1935 7.27199 15.1935C6.71999 15.1935 6.27224 14.7458 6.27224 14.1938C6.27224 13.6418 6.71999 13.194 7.27199 13.194C7.82399 13.194 8.27174 13.6418 8.27174 14.1938ZM12.9997 14.1938C12.9997 14.7458 12.552 15.1935 12 15.1935C11.448 15.1935 11.0002 14.7458 11.0002 14.1938C11.0002 13.6418 11.448 13.194 12 13.194C12.552 13.194 12.9997 13.6418 12.9997 14.1938ZM17.7277 14.1938C17.7277 14.7458 17.28 15.1935 16.728 15.1935C16.176 15.1935 15.7282 14.7458 15.7282 14.1938C15.7282 13.6418 16.176 13.194 16.728 13.194C17.28 13.194 17.7277 13.6418 17.7277 14.1938ZM8.27174 17.6708C8.27174 18.2228 7.82399 18.6705 7.27199 18.6705C6.71999 18.6705 6.27224 18.2228 6.27224 17.6708C6.27224 17.1188 6.71999 16.671 7.27199 16.671C7.82399 16.671 8.27174 17.1188 8.27174 17.6708ZM12.9997 17.6708C12.9997 18.2228 12.552 18.6705 12 18.6705C11.448 18.6705 11.0002 18.2228 11.0002 17.6708C11.0002 17.1188 11.448 16.671 12 16.671C12.552 16.671 12.9997 17.1188 12.9997 17.6708ZM17.7277 17.6708C17.7277 18.2228 17.28 18.6705 16.728 18.6705C16.176 18.6705 15.7282 18.2228 15.7282 17.6708C15.7282 17.1188 16.176 16.671 16.728 16.671C17.28 16.671 17.7277 17.1188 17.7277 17.6708Z" fill="#808080"/>
</svg>
