<svg width="15" height="16" viewBox="0 0 15 16" fill="none" xmlns="http://www.w3.org/2000/svg">
<g clip-path="url(#clip0_5997_13884)">
<path d="M11.0021 3.50205C11.2673 3.50205 11.5216 3.39669 11.7092 3.20916C11.8967 3.02162 12.0021 2.76727 12.0021 2.50205V1.50205C12.0109 1.36844 11.9911 1.23449 11.944 1.10915C11.8968 0.98382 11.8235 0.870002 11.7288 0.77532C11.6341 0.680637 11.5203 0.607276 11.3949 0.560148C11.2696 0.513019 11.1357 0.493211 11.0021 0.50205C10.8684 0.493211 10.7345 0.513019 10.6092 0.560148C10.4838 0.607276 10.37 0.680637 10.2753 0.77532C10.1806 0.870002 10.1073 0.98382 10.0601 1.10915C10.013 1.23449 9.99321 1.36844 10.0021 1.50205V2.50205C10.0021 2.76727 10.1074 3.02162 10.2949 3.20916C10.4825 3.39669 10.7368 3.50205 11.0021 3.50205ZM14.0021 1.50205H13.0021V2.50205C13.0021 3.03248 12.7913 3.54119 12.4163 3.91626C12.0412 4.29134 11.5325 4.50205 11.0021 4.50205C10.4716 4.50205 9.96291 4.29134 9.58784 3.91626C9.21276 3.54119 9.00205 3.03248 9.00205 2.50205V1.50205H6.00205V2.50205C6.00205 3.03248 5.79134 3.54119 5.41626 3.91626C5.04119 4.29134 4.53248 4.50205 4.00205 4.50205C3.47162 4.50205 2.96291 4.29134 2.58784 3.91626C2.21276 3.54119 2.00205 3.03248 2.00205 2.50205V1.50205H1.00205C0.736834 1.50205 0.48248 1.60741 0.294944 1.79494C0.107407 1.98248 0.00205032 2.23683 0.00205032 2.50205V14.5021C-0.0067886 14.6357 0.0130193 14.7696 0.0601477 14.8949C0.107276 15.0203 0.180637 15.1341 0.27532 15.2288C0.370002 15.3235 0.48382 15.3968 0.609153 15.444C0.734486 15.4911 0.868441 15.5109 1.00205 15.5021H14.0021C14.1357 15.5109 14.2696 15.4911 14.3949 15.444C14.5203 15.3968 14.6341 15.3235 14.7288 15.2288C14.8235 15.1341 14.8968 15.0203 14.944 14.8949C14.9911 14.7696 15.0109 14.6357 15.0021 14.5021V2.50205C15.0021 2.23683 14.8967 1.98248 14.7092 1.79494C14.5216 1.60741 14.2673 1.50205 14.0021 1.50205ZM5.00205 13.5021H2.00205V10.5021H5.00205V13.5021ZM5.00205 9.50205H2.00205V6.50205H5.00205V9.50205ZM9.00205 13.5021H6.00205V10.5021H9.00205V13.5021ZM9.00205 9.50205H6.00205V6.50205H9.00205V9.50205ZM13.0021 13.5021H10.0021V10.5021H13.0021V13.5021ZM13.0021 9.50205H10.0021V6.50205H13.0021V9.50205ZM4.00205 3.50205C4.26727 3.50205 4.52162 3.39669 4.70916 3.20916C4.89669 3.02162 5.00205 2.76727 5.00205 2.50205V1.50205C5.01089 1.36844 4.99108 1.23449 4.94395 1.10915C4.89682 0.98382 4.82346 0.870002 4.72878 0.77532C4.6341 0.680637 4.52028 0.607276 4.39495 0.560148C4.26961 0.513019 4.13566 0.493211 4.00205 0.50205C3.86844 0.493211 3.73449 0.513019 3.60915 0.560148C3.48382 0.607276 3.37 0.680637 3.27532 0.77532C3.18064 0.870002 3.10728 0.98382 3.06015 1.10915C3.01302 1.23449 2.99321 1.36844 3.00205 1.50205V2.50205C3.00205 2.76727 3.10741 3.02162 3.29494 3.20916C3.48248 3.39669 3.73683 3.50205 4.00205 3.50205Z" fill="#6B7280"/>
</g>
<defs>
<clipPath id="clip0_5997_13884">
<rect width="15" height="15" fill="white" transform="translate(0 0.5)"/>
</clipPath>
</defs>
</svg>
