<svg width="24" height="24" viewBox="0 0 24 24" fill="none" xmlns="http://www.w3.org/2000/svg">
<path d="M12 2.625C6.831 2.625 2.625 6.831 2.625 12C2.625 17.169 6.831 21.375 12 21.375C17.169 21.375 21.375 17.169 21.375 12C21.375 6.831 17.169 2.625 12 2.625ZM12 19.8757C7.65675 19.8757 4.12425 16.3425 4.12425 12C4.12425 7.6575 7.6575 4.12425 12 4.12425C16.3425 4.12425 19.8757 7.6575 19.8757 12C19.8757 16.3425 16.3425 19.8757 12 19.8757Z" fill="#808080"/>
<path d="M11.625 11.625H7.4707V13.1242H13.1235V6.08624H11.6242L11.625 11.625Z" fill="#808080"/>
</svg>
