<svg width="56" height="35" viewBox="0 0 56 35" fill="none" xmlns="http://www.w3.org/2000/svg">
<path d="M28.007 14.0107C26.0855 14.0107 24.514 15.5892 24.514 17.5177C24.514 19.4497 26.0855 21.0282 28.007 21.0282C29.932 21.0282 31.5035 19.4497 31.5035 17.5177C31.5035 15.5892 29.932 14.0107 28.007 14.0107ZM55.965 17.4127V17.1677C55.895 16.6777 55.685 16.2542 55.37 15.9042C53.5885 13.5522 51.457 11.4837 49.2905 9.58673C44.6425 5.48123 39.3295 2.04423 33.46 0.675729C30.037 -0.167771 26.6455 -0.202771 23.2225 0.465729C20.111 1.09573 17.1395 2.35923 14.3115 3.93773C9.9435 6.42973 5.922 9.83523 2.429 13.6572C1.799 14.3957 1.169 15.0957 0.5775 15.8692C-0.1925 16.8877 -0.1925 18.1162 0.5775 19.1312C2.359 21.4832 4.4905 23.5552 6.657 25.4488C11.305 29.5543 16.618 32.9948 22.4875 34.3633C25.8755 35.1683 29.302 35.2033 32.725 34.5033C35.8365 33.8698 38.808 32.6063 41.636 31.0278C46.004 28.5358 50.0255 25.1338 53.5185 21.3082C54.1485 20.6082 54.8135 19.8697 55.405 19.0962C55.72 18.7462 55.93 18.2912 56 17.8362V17.4827C56 17.4477 55.965 17.4477 55.965 17.4127ZM28.007 28.0458C22.2075 28.0458 17.5245 23.3452 17.5245 17.5177C17.5245 11.6937 22.2075 6.98973 28.007 6.98973C33.81 6.98973 38.493 11.6937 38.493 17.5177C38.493 23.3452 33.81 28.0458 28.007 28.0458Z" fill="#6B7280"/>
</svg>
