<svg width="26" height="20" viewBox="0 0 26 20" xmlns="http://www.w3.org/2000/svg"><g clip-path="url(#clip0_1003_139)"><path fill="white" d="M21.6315 2.10971C24.447 6.24687 25.8375 10.9135 25.3177 16.2858C25.3155 16.3086 25.3037 16.3294 25.285 16.3431C23.1529 17.9078 21.0871 18.8574 19.0503 19.4871C19.0345 19.4919 19.0175 19.4917 19.0018 19.4864C18.9861 19.4811 18.9725 19.471 18.9628 19.4575C18.4922 18.8032 18.0647 18.1134 17.6901 17.3889C17.6686 17.3463 17.6882 17.2949 17.7325 17.2781C18.4115 17.0224 19.0572 16.7159 19.6783 16.3531C19.7272 16.3244 19.7303 16.2544 19.6851 16.2207C19.5533 16.1229 19.4227 16.0202 19.2978 15.9174C19.2744 15.8984 19.2429 15.8947 19.2164 15.9074C15.1843 17.7683 10.7674 17.7683 6.68761 15.9074C6.66112 15.8956 6.62964 15.8996 6.6069 15.9183C6.48225 16.0211 6.35136 16.1229 6.22079 16.2207C6.17561 16.2544 6.17935 16.3244 6.22858 16.3531C6.84965 16.7091 7.49533 17.0224 8.17343 17.2793C8.21737 17.2961 8.23824 17.3463 8.21643 17.3889C7.84996 18.1143 7.42241 18.8041 6.94314 19.4585C6.92226 19.4849 6.88798 19.4971 6.85557 19.4871C4.82846 18.8574 2.76271 17.9078 0.630581 16.3431C0.612818 16.3294 0.600042 16.3076 0.598172 16.2849C0.163769 11.6379 1.04909 6.93267 4.28094 2.10877C4.28873 2.096 4.30057 2.08604 4.31428 2.08012C5.9045 1.35073 7.60814 0.814117 9.38876 0.507661C9.42117 0.502677 9.45358 0.517627 9.4704 0.546279C9.69041 0.935579 9.94189 1.43482 10.112 1.8428C11.9889 1.55628 13.8951 1.55628 15.8113 1.8428C15.9815 1.44354 16.2242 0.935579 16.4433 0.546279C16.4511 0.532065 16.4632 0.520677 16.4778 0.513742C16.4925 0.506807 16.509 0.504678 16.5249 0.507661C18.3065 0.815052 20.0101 1.35166 21.5991 2.08012C21.6131 2.08604 21.6247 2.096 21.6315 2.10971ZM11.0662 10.9453C11.0859 9.5715 10.0837 8.43474 8.82565 8.43474C7.57791 8.43474 6.58539 9.56153 6.58539 10.9453C6.58539 12.3287 7.59755 13.4555 8.82565 13.4555C10.0737 13.4555 11.0662 12.3287 11.0662 10.9453ZM19.3498 10.9453C19.3694 9.5715 18.3673 8.43474 17.1095 8.43474C15.8615 8.43474 14.869 9.56153 14.869 10.9453C14.869 12.3287 15.8811 13.4555 17.1095 13.4555C18.3673 13.4555 19.3498 12.3287 19.3498 10.9453Z"></path></g><defs><clipPath id="clip0_1003_139"><rect width="26" height="19" fill="white" transform="translate(0 0.5)"></rect></clipPath></defs></svg>