<svg width="24" height="24" viewBox="0 0 24 24" fill="none" xmlns="http://www.w3.org/2000/svg">
<g id="icons24px">
<path id="Vector" d="M11.9999 8.24999C9.92919 8.24999 8.24994 9.92924 8.24994 12C8.24994 14.0707 9.92919 15.75 11.9999 15.75C14.0707 15.75 15.7499 14.0707 15.7499 12C15.7499 9.92924 14.0707 8.24999 11.9999 8.24999ZM11.9999 14.25C10.7587 14.25 9.74994 13.2412 9.74994 12C9.74994 10.7587 10.7587 9.74999 11.9999 9.74999C13.2412 9.74999 14.2499 10.7587 14.2499 12C14.2499 13.2412 13.2412 14.25 11.9999 14.25ZM21.4379 11.0752C19.9859 9.17399 16.3079 5.50049 11.9999 5.50049C7.69194 5.50049 4.01394 9.17474 2.56194 11.0767C2.14569 11.622 2.14569 12.381 2.56194 12.9255C4.01394 14.8267 7.69194 18.5002 11.9999 18.5002C16.3079 18.5002 19.9859 14.826 21.4379 12.924C21.8542 12.3787 21.8542 11.6197 21.4379 11.0752ZM11.9999 17.0002C7.68594 17.0002 4.14369 12.5242 3.75369 11.9865C4.14369 11.4765 7.68594 7.00049 11.9999 7.00049C16.3139 7.00049 19.8562 11.4765 20.2462 12.0142C19.8562 12.5242 16.3139 17.0002 11.9999 17.0002Z" fill="#808080"/>
</g>
</svg>
