<svg width="33" height="33" viewBox="0 0 33 33" fill="none" xmlns="http://www.w3.org/2000/svg">
<g clip-path="url(#clip0_12_1449)">
<path d="M16.2848 1.39941C7.71103 1.39941 0.760498 8.34995 0.760498 16.924C0.760498 19.1266 1.22022 21.2214 2.04732 23.1195L18.0591 32.3468C25.7974 31.4663 31.8092 24.8977 31.8092 16.924C31.8094 8.34995 24.8589 1.39941 16.2848 1.39941Z" fill="#4C01D5"/>
<path d="M24.431 2.83507C24.1847 2.69297 24.1002 2.37831 24.2423 2.13199L25.3247 0.257455C25.4668 0.0111315 25.7817 -0.0730394 26.0278 0.069061C26.2741 0.211161 26.3585 0.526059 26.2161 0.772136L25.1341 2.64667C24.992 2.89299 24.6771 2.97717 24.431 2.83507Z" fill="#B9E9FD"/>
<path d="M23.9218 1.92026C21.9653 2.84491 20.0509 4.10698 18.2583 5.66909L25.0625 9.59764C25.5193 7.26413 25.6549 4.97493 25.4774 2.81842C25.4148 2.05593 24.6135 1.59348 23.9218 1.92026Z" fill="#F948B4"/>
<path d="M24.9095 2.49037C25.0417 2.35892 25.1616 2.27995 25.2616 2.24875C24.9647 1.85587 24.4154 1.68704 23.9218 1.92024C21.9653 2.84464 20.0509 4.10695 18.2583 5.66906L20.8456 7.16285C22.2309 5.36555 23.6034 3.79057 24.9095 2.49037Z" fill="#F6159C"/>
<path d="M18.3894 25.6406C17.0572 27.3399 15.6154 28.8748 14.0981 30.2304L17.8108 32.3738C17.9247 32.3629 18.0378 32.35 18.151 32.3367C18.5614 30.1888 18.6887 28.0843 18.5367 26.0996C18.5236 25.928 18.4701 25.7736 18.3894 25.6406Z" fill="#61B6FF"/>
<path d="M18.5832 28.5562C18.6129 27.7211 18.5978 26.9005 18.5367 26.0996C18.5236 25.928 18.4701 25.7736 18.3894 25.6406C17.0572 27.3399 15.6154 28.8745 14.0981 30.2302L16.0665 31.3667C16.9387 30.4906 17.7799 29.5528 18.5832 28.5562Z" fill="#5294E5"/>
<path d="M14.0981 30.2305C13.8553 30.4471 13.6109 30.66 13.3644 30.8674C13.3594 30.8717 13.3542 30.8754 13.3493 30.8793L12.6858 32.0283C13.8409 32.3026 15.0458 32.4486 16.2848 32.4486C16.7998 32.4486 17.3088 32.4229 17.8108 32.3739L14.0981 30.2305Z" fill="#5294E5"/>
<path d="M16.0665 31.3668L14.0981 30.2305C13.8553 30.4471 13.6109 30.66 13.3644 30.8674C13.3594 30.8717 13.3542 30.8754 13.3493 30.8793L12.6858 32.0285C13.4369 32.2068 14.2095 32.3298 14.9985 32.3949C15.3592 32.0622 15.7154 31.7196 16.0665 31.3668Z" fill="#4374D3"/>
<path d="M2.01025 23.0349C2.05184 23.1319 2.09393 23.2287 2.1375 23.3245L5.87271 25.4813C6.28812 23.4891 6.89613 21.4733 7.70194 19.47C7.54622 19.4665 7.3858 19.4977 7.23083 19.572C5.43155 20.4347 3.66867 21.6007 2.01025 23.0349Z" fill="#61B6FF"/>
<path d="M3.79963 24.2843C4.76264 23.4505 5.75833 22.7014 6.7768 22.0436C7.04937 21.1853 7.35733 20.3265 7.70194 19.47C7.54622 19.4665 7.3858 19.4977 7.23083 19.572C5.43155 20.4347 3.66842 21.6007 2.01025 23.0349C2.05184 23.1319 2.09393 23.2287 2.1375 23.3245L3.79963 24.2843Z" fill="#5294E5"/>
<path d="M5.02031 27.6065L5.68501 26.4549C5.686 26.4484 5.68649 26.4422 5.68773 26.4358C5.74417 26.1187 5.80607 25.8006 5.87266 25.482L2.13745 23.3252C2.85686 24.9131 3.83597 26.3581 5.02031 27.6065Z" fill="#5294E5"/>
<path d="M3.79958 24.285L2.13745 23.3252C2.39739 23.8993 2.69199 24.4541 3.01728 24.9883C3.27549 24.7477 3.53617 24.513 3.79958 24.285Z" fill="#4374D3"/>
<path d="M20.644 22.3157L9.39481 15.8209C9.35544 15.7982 9.32004 15.7712 9.28811 15.7412C7.42793 19.24 6.19582 22.8504 5.56899 26.3668C5.56775 26.3732 5.56726 26.3794 5.56627 26.3859L4.92261 27.5009C7.00559 29.7378 9.7404 31.3591 12.8255 32.0612L13.4682 30.9479C13.4734 30.944 13.4786 30.9402 13.4835 30.9363C16.2198 28.631 18.7348 25.7528 20.8369 22.385C20.7705 22.3734 20.7051 22.3511 20.644 22.3157Z" fill="#B9E9FD"/>
<path d="M8.82641 29.2756C8.82765 29.2685 8.82814 29.2615 8.82938 29.2544C9.50622 25.4592 10.8193 21.5648 12.7919 17.7826L9.39457 15.8209C9.3552 15.7984 9.3198 15.7712 9.28762 15.7412C7.42769 19.24 6.19558 22.8504 5.5685 26.3668C5.56751 26.373 5.56702 26.3794 5.56603 26.3859L4.92212 27.5009C5.90593 28.5572 7.03506 29.4759 8.27782 30.2258L8.82641 29.2756Z" fill="#83D3FC"/>
<path d="M14.245 8.60672L24.4663 14.5081C24.502 14.5286 24.5341 14.5526 24.5638 14.5789C25.0018 13.3012 25.3612 12.0231 25.6412 10.7533C25.7445 10.2867 25.5345 9.80665 25.1204 9.56775L18.2557 5.60429C17.8418 5.36539 17.3214 5.42357 16.9687 5.74614C16.0116 6.62127 15.0867 7.56919 14.2012 8.58394C14.216 8.59087 14.2306 8.5983 14.245 8.60672Z" fill="#B9E9FD"/>
<path d="M20.006 7.44847C20.2419 7.18878 20.5281 7.05113 20.7791 7.06128L18.2557 5.60438C17.8418 5.36548 17.3214 5.42341 16.9687 5.74599C16.0116 6.62112 15.0867 7.56903 14.2012 8.58403C14.216 8.59096 14.2306 8.59839 14.245 8.60656L17.4759 10.4719C18.3005 9.40594 19.1462 8.39589 20.006 7.44847Z" fill="#83D3FC"/>
<path d="M18.1754 20.89L11.8631 17.2456L11.2479 18.3111C11.0214 18.7035 11.157 19.2098 11.5494 19.4363L16.4351 22.257C16.8274 22.4835 17.3337 22.3478 17.56 21.9555L18.1754 20.89Z" fill="#FBB362"/>
<path d="M14.1028 19.9767L14.7254 18.8981L11.8631 17.2456L11.2479 18.3111C11.0214 18.7035 11.157 19.2098 11.5494 19.4363L13.9486 20.8214C13.8703 20.6174 13.9228 20.2884 14.1028 19.9767Z" fill="#FC9949"/>
<path d="M24.8262 15.2575C24.9393 14.9401 24.8093 14.5874 24.5177 14.419L14.2964 8.51789C14.0048 8.34955 13.6342 8.41317 13.4161 8.66989C11.7792 10.5962 10.3186 12.7185 9.07953 14.9728C8.89733 15.3043 9.01542 15.7209 9.34319 15.9103L20.5924 22.4049C20.9202 22.5942 21.34 22.488 21.5361 22.1645C22.916 19.8864 24.0077 17.5509 24.8262 15.2575Z" fill="#D0F6FA"/>
<path d="M12.7246 17.1451C13.9971 14.8638 15.4275 12.6776 16.9723 10.6533C17.1127 10.4694 17.2976 10.3609 17.4672 10.3485L14.2964 8.51783C14.0048 8.34948 13.6342 8.41335 13.4161 8.66983C11.7792 10.5961 10.3186 12.7184 9.07953 14.9727C8.89733 15.3045 9.01542 15.7211 9.34319 15.9103L12.6605 17.8256C12.5734 17.6467 12.5905 17.3857 12.7246 17.1451Z" fill="#B9E9FD"/>
<path d="M12.2183 22.4518C10.4574 23.394 8.719 24.6482 7.0752 26.1756L12.8954 29.536C13.3964 27.3486 13.6133 25.2161 13.5487 23.22C13.5262 22.5145 12.8407 22.1186 12.2183 22.4518Z" fill="#61B6FF"/>
<path d="M13.2613 23.0538C13.337 22.959 13.4039 22.8879 13.4613 22.8379C13.2546 22.3856 12.7164 22.1851 12.2183 22.4517C10.4574 23.394 8.719 24.6481 7.0752 26.1756L9.81496 27.7575C11.0268 25.9805 12.1901 24.3944 13.2613 23.0538Z" fill="#5294E5"/>
<path d="M5.80444 28.3761C7.45617 29.8885 9.43592 31.0483 11.6249 31.7363L12.8953 29.5357L7.07518 26.1753L5.80444 28.3761Z" fill="#5294E5"/>
<path d="M9.81593 27.7577L7.07518 26.1753L5.80444 28.3761C6.58748 29.0931 7.44479 29.7295 8.3625 30.2752L9.81593 27.7577Z" fill="#4374D3"/>
<path d="M13.9442 12.1661C13.6762 12.6337 13.6064 13.1755 13.7503 13.6954L14.0692 14.8731L16.4741 11.3163C16.4556 11.3084 16.4369 11.3008 16.4181 11.2935C16.0315 11.1431 15.5956 11.1099 15.1655 11.2255C14.6442 11.3642 14.2121 11.6984 13.9442 12.1661Z" fill="#F6159C"/>
<path d="M19.3124 16.8825C19.8304 16.7419 20.2625 16.4077 20.5304 15.9401C20.7984 15.4725 20.8682 14.9307 20.7243 14.4108C20.4347 13.3437 19.3282 12.7096 18.2578 12.9974L17.7657 13.131L17.6354 12.6408C17.4659 12.0222 17.0239 11.5492 16.4741 11.3163L14.0692 14.8731L14.0999 14.9865L14.8536 17.7702C14.862 17.8013 14.871 17.8239 14.8832 17.8484C14.9076 17.8974 14.9494 17.9389 14.9955 17.9653C15.0416 17.9917 15.0953 18.005 15.1499 18.0013C15.172 18.0008 15.2252 17.9919 15.246 17.9863L19.3124 16.8825Z" fill="#F948B4"/>
</g>
<defs>
<clipPath id="clip0_12_1449">
<rect width="32.4483" height="32.4483" fill="white"/>
</clipPath>
</defs>
</svg>
