<svg width="79" height="17" viewBox="0 0 79 17" fill="none" xmlns="http://www.w3.org/2000/svg">
<path d="M14.7881 6.42885L10.11 6.02546L8.28173 1.71826L6.45345 6.03196L1.77539 6.42885L5.32785 9.50635L4.26081 14.0803L8.28173 11.6534L12.3026 14.0803L11.2421 9.50635L14.7881 6.42885ZM8.28173 10.4368L5.83534 11.9137L6.48598 9.12898L4.32587 7.25515L7.17565 7.00791L8.28173 4.38586L9.39431 7.01442L12.2441 7.26166L10.084 9.13548L10.7346 11.9202L8.28173 10.4368Z" fill="#4C01D5"/>
<path d="M8.28173 10.4368L5.83534 11.9137L6.48598 9.12898L4.32587 7.25515L7.17565 7.00791L8.28173 4.38586L9.39431 7.01442L12.2441 7.26166L10.084 9.13548L10.7346 11.9202L8.28173 10.4368Z" fill="#F6F2FD"/>
<path d="M30.4033 6.42885L25.7252 6.02546L23.897 1.71826L22.0687 6.03196L17.3906 6.42885L20.9431 9.50635L19.876 14.0803L23.897 11.6534L27.9179 14.0803L26.8573 9.50635L30.4033 6.42885ZM23.897 10.4368L21.4506 11.9137L22.1012 9.12898L19.9411 7.25515L22.7909 7.00791L23.897 4.38586L25.0095 7.01442L27.8593 7.26166L25.6992 9.13548L26.3498 11.9202L23.897 10.4368Z" fill="#4C01D5"/>
<path d="M23.897 10.4368L21.4506 11.9137L22.1012 9.12898L19.9411 7.25515L22.7909 7.00791L23.897 4.38586L25.0095 7.01442L27.8593 7.26166L25.6992 9.13548L26.3498 11.9202L23.897 10.4368Z" fill="#F6F2FD"/>
<path d="M46.0185 6.42885L41.3405 6.02546L39.5122 1.71826L37.6839 6.03196L33.0059 6.42885L36.5583 9.50635L35.4913 14.0803L39.5122 11.6534L43.5331 14.0803L42.4726 9.50635L46.0185 6.42885ZM39.5122 10.4368L37.0658 11.9137L37.7164 9.12898L35.5563 7.25515L38.4061 7.00791L39.5122 4.38586L40.6248 7.01442L43.4746 7.26166L41.3145 9.13548L41.9651 11.9202L39.5122 10.4368Z" fill="#4C01D5"/>
<path d="M39.5122 10.4368L37.0658 11.9137L37.7164 9.12898L35.5563 7.25515L38.4061 7.00791L39.5122 4.38586L40.6248 7.01442L43.4746 7.26166L41.3145 9.13548L41.9651 11.9202L39.5122 10.4368Z" fill="#F6F2FD"/>
<path d="M61.6338 6.42885L56.9557 6.02546L55.1274 1.71826L53.2991 6.03196L48.6211 6.42885L52.1736 9.50635L51.1065 14.0803L55.1274 11.6534L59.1483 14.0803L58.0878 9.50635L61.6338 6.42885ZM55.1274 10.4368L52.681 11.9137L53.3317 9.12898L51.1716 7.25515L54.0214 7.00791L55.1274 4.38586L56.24 7.01442L59.0898 7.26166L56.9297 9.13548L57.5803 11.9202L55.1274 10.4368Z" fill="#4C01D5"/>
<path d="M55.1274 10.4368L52.681 11.9137L53.3317 9.12898L51.1716 7.25515L54.0214 7.00791L55.1274 4.38586L56.24 7.01442L59.0898 7.26166L56.9297 9.13548L57.5803 11.9202L55.1274 10.4368Z" fill="#F6F2FD"/>
<path d="M77.249 6.42885L72.5709 6.02546L70.7427 1.71826L68.9144 6.03196L64.2363 6.42885L67.7888 9.50635L66.7217 14.0803L70.7427 11.6534L74.7636 14.0803L73.703 9.50635L77.249 6.42885ZM70.7427 10.4368L68.2963 11.9137L68.9469 9.12898L66.7868 7.25515L69.6366 7.00791L70.7427 4.38586L71.8552 7.01442L74.705 7.26166L72.5449 9.13548L73.1956 11.9202L70.7427 10.4368Z" fill="#4C01D5"/>
<path d="M70.7427 10.4368L68.2963 11.9137L68.9469 9.12898L66.7868 7.25515L69.6366 7.00791L70.7427 4.38586L71.8552 7.01442L74.705 7.26166L72.5449 9.13548L73.1956 11.9202L70.7427 10.4368Z" fill="#F6F2FD"/>
</svg>
