<svg width="40" height="40" viewBox="0 0 40 40" fill="none" xmlns="http://www.w3.org/2000/svg">
<path d="M9 22H31V20H9V22ZM20 31C14.4772 31 10 26.5228 10 21H8C8 27.6274 13.3726 33 20 33V31ZM10 21C10 15.4772 14.4772 11 20 11V9C13.3726 9 8 14.3726 8 21H10ZM20 11C25.5228 11 30 15.4772 30 21H32C32 14.3726 26.6274 9 20 9V11ZM30 21C30 26.5228 25.5228 31 20 31V33C26.6274 33 32 27.6274 32 21H30ZM20 31C19.6504 31 19.242 30.8447 18.7864 30.4112C18.3257 29.9727 17.8653 29.291 17.4568 28.372C16.6411 26.5367 16.1111 23.9311 16.1111 21H14.1111C14.1111 24.144 14.6755 27.0384 15.6292 29.1843C16.1055 30.256 16.6986 31.1852 17.4076 31.86C18.1219 32.5397 18.9996 33 20 33V31ZM16.1111 21C16.1111 18.0689 16.6411 15.4633 17.4568 13.628C17.8653 12.709 18.3257 12.0273 18.7864 11.5888C19.242 11.1553 19.6504 11 20 11V9C18.9996 9 18.1219 9.46034 17.4076 10.14C16.6986 10.8148 16.1055 11.744 15.6292 12.8157C14.6755 14.9616 14.1111 17.856 14.1111 21H16.1111ZM20 11C20.3496 11 20.758 11.1553 21.2136 11.5888C21.6743 12.0273 22.1347 12.709 22.5432 13.628C23.3589 15.4633 23.8889 18.0689 23.8889 21H25.8889C25.8889 17.856 25.3245 14.9616 24.3708 12.8157C23.8945 11.744 23.3014 10.8148 22.5924 10.14C21.8781 9.46034 21.0004 9 20 9V11ZM23.8889 21C23.8889 23.9311 23.3589 26.5367 22.5432 28.372C22.1347 29.291 21.6743 29.9727 21.2136 30.4112C20.758 30.8447 20.3496 31 20 31V33C21.0004 33 21.8781 32.5397 22.5924 31.86C23.3014 31.1852 23.8945 30.256 24.3708 29.1843C25.3245 27.0384 25.8889 24.144 25.8889 21H23.8889Z" fill="url(#paint0_linear_6502_989)"/>
<defs>
<linearGradient id="paint0_linear_6502_989" x1="20" y1="10" x2="20" y2="32" gradientUnits="userSpaceOnUse">
<stop stop-color="#D8B35D"/>
<stop offset="1" stop-color="#F5E7BF"/>
</linearGradient>
</defs>
</svg>
