<svg width="24" height="24" viewBox="0 0 24 24" xmlns="http://www.w3.org/2000/svg"><g clip-path="url(#clip0_1003_137)"><path fill="white" d="M12 0C5.37097 0 0 5.20312 0 11.625C0 18.0469 5.37097 23.25 12 23.25C18.629 23.25 24 18.0469 24 11.625C24 5.20312 18.629 0 12 0ZM17.8935 7.96406L15.9242 16.9547C15.779 17.5922 15.3871 17.7469 14.8403 17.4469L11.8403 15.3047L10.3935 16.6547C10.2339 16.8094 10.0984 16.9406 9.78871 16.9406L10.0016 13.9828L15.5613 9.11719C15.8032 8.91094 15.5081 8.79375 15.1887 9L8.31774 13.1906L5.35645 12.2953C4.7129 12.0984 4.69839 11.6719 5.49194 11.3719L17.0613 7.05C17.5984 6.8625 18.0677 7.17656 17.8935 7.96406Z"></path></g><defs><clipPath id="clip0_1003_137"><rect width="24" height="24" fill="#FFF"></rect></clipPath></defs></svg>