<svg width="25" height="24" viewBox="0 0 25 24" xmlns="http://www.w3.org/2000/svg"><path fill="white" d="M23.8569 6.07404C23.5842 5.01164 22.781 4.17492 21.7612 3.89097C19.9127 3.375 12.5003 3.375 12.5003 3.375C12.5003 3.375 5.08798 3.375 3.23941 3.89097C2.21957 4.17497 1.41636 5.01164 1.14375 6.07404C0.648438 7.99971 0.648438 12.0174 0.648438 12.0174C0.648438 12.0174 0.648438 16.0352 1.14375 17.9608C1.41636 19.0232 2.21957 19.8251 3.23941 20.109C5.08798 20.625 12.5003 20.625 12.5003 20.625C12.5003 20.625 19.9126 20.625 21.7612 20.109C22.781 19.8251 23.5842 19.0232 23.8569 17.9608C24.3522 16.0352 24.3522 12.0174 24.3522 12.0174C24.3522 12.0174 24.3522 7.99971 23.8569 6.07404ZM10.076 15.6652V8.36964L16.2713 12.0175L10.076 15.6652Z"></path></svg>