<svg width="106" height="127" viewBox="0 0 106 127" fill="none" xmlns="http://www.w3.org/2000/svg">
<rect y="-40" width="167" height="167" rx="83.5" fill="#3094FF"/>
<path d="M121.245 85.0259C121.165 85.0401 120.791 85.107 120.184 85.2158C96.2368 89.5079 91.8316 90.2449 91.3373 90.3022C90.1579 90.4391 89.2768 90.3698 88.6428 90.0904C88.2468 89.916 88.0323 89.7042 87.9751 89.6109C88.0029 89.4453 88.2135 89.0503 88.3421 88.8091C88.4673 88.5744 88.6091 88.3085 88.7334 88.0251C89.5575 86.1446 88.9809 84.2369 87.2283 83.0463C85.9215 82.1588 84.1887 81.7985 82.0766 81.9754C80.8158 82.0811 58.7155 85.7861 46.5758 87.8294L40.6172 92.5153C54.5133 90.1698 80.987 85.7281 82.3799 85.593C83.6242 85.4886 84.595 85.6467 85.1882 86.0494C85.5327 86.2836 85.4988 86.3609 85.4081 86.5678C85.3401 86.723 85.2423 86.9063 85.1388 87.1004C84.7411 87.8461 84.1963 88.8673 84.3767 90.1322C84.5745 91.5195 85.5958 92.7151 87.1787 93.4127C88.0687 93.8048 89.0901 93.9992 90.2746 93.9992C90.7422 93.9992 91.2352 93.9689 91.7554 93.9085C92.7079 93.798 102.488 92.0757 120.824 88.7892C121.428 88.681 121.8 88.6143 121.879 88.6003C122.866 88.4252 123.524 87.4829 123.349 86.4958C123.174 85.5086 122.232 84.8506 121.245 85.0259Z" fill="#007BFF"/>
<path d="M56.9803 67.3869L41.5602 83.5168C39.8619 85.2934 38.6656 87.489 38.0938 89.8792L59.9892 72.6605C66.8435 75.7 72.3188 76.6682 76.5149 76.6682C83.8871 76.6682 87.3093 73.6781 87.3093 73.6781C80.4463 70.1068 79.4683 63.4417 79.4683 63.4417C84.7247 65.664 95.6741 68.2835 95.6741 68.2835C110.215 58.5785 117.815 37.566 117.815 37.566C116.309 37.9799 114.869 38.1523 113.513 38.1523C106.688 38.1523 101.999 33.7823 101.999 33.7823L120.996 29.6451C127.312 16.6861 127.916 -6 127.916 -6L70.1574 45.3716C63.6164 51.1892 59.0171 58.8733 56.9803 67.3869Z" fill="#007BFF"/>
</svg>
