<svg width="16" height="14" viewBox="0 0 16 14" fill="none" xmlns="http://www.w3.org/2000/svg">
<g id="svg-path (11) 1" clip-path="url(#clip0_6012_12856)">
<path id="Vector" d="M2.06 5.19C2.2 4.79 2.56 4.5 3 4.5H14V3.5C14 2.95 13.55 2.5 13 2.5H6.41L4.71 0.79C4.53 0.61 4.28 0.5 4 0.5H1C0.45 0.5 0 0.95 0 1.5V11.34L2.05 5.19H2.06ZM16 6.5C16 5.95 15.55 5.5 15 5.5H4C3.56 5.5 3.19 5.79 3.06 6.19L1.06 12.19C1.02 12.28 1 12.39 1 12.5C1 13.05 1.45 13.5 2 13.5H13C13.44 13.5 13.81 13.21 13.94 12.81L15.94 6.81C15.98 6.72 16 6.61 16 6.5Z" fill="#f948b4"/>
</g>
<defs>
<clipPath id="clip0_6012_12856">
<rect width="16" height="13" fill="white" transform="translate(0 0.5)"/>
</clipPath>
</defs>
</svg>
