<svg width="40" height="40" viewBox="0 0 40 40" fill="none" xmlns="http://www.w3.org/2000/svg">
<rect x="0.5" y="0.5" width="39" height="39" rx="19.5" stroke="#081426" stroke-opacity="0.2"/>
<path d="M15.6923 27H12.3357V16.9301H15.6923V27ZM14.014 15.028C12.8951 15.028 12 14.1329 12 13.014C12 11.8951 12.8951 11 14.014 11C15.1329 11 16.028 11.8951 16.028 13.014C16.028 14.1329 15.1329 15.028 14.014 15.028ZM28 27H24.6434V21.0699C24.6434 20.1749 23.8601 19.3916 22.965 19.3916C22.0699 19.3916 21.2867 20.1749 21.2867 21.0699V27H17.9301V16.9301H21.2867V18.2727C21.8462 17.3776 23.0769 16.7063 24.0839 16.7063C26.2098 16.7063 28 18.4965 28 20.6224V27Z" fill="#0E2A30"/>
</svg>
