<svg width="15" height="16" viewBox="0 0 15 16" fill="none" xmlns="http://www.w3.org/2000/svg">
<path d="M13.6562 3H10.3047C9.58545 3 8.88232 3.20654 8.27734 3.59619L7.5625 4.05469L6.84766 3.59619C6.24328 3.20662 5.53937 2.99962 4.82031 3H1.46875C1.20947 3 1 3.20947 1 3.46875V11.7891C1 12.0483 1.20947 12.2578 1.46875 12.2578H4.82031C5.53955 12.2578 6.24268 12.4644 6.84766 12.854L7.49805 13.2729C7.51709 13.2847 7.53906 13.292 7.56104 13.292C7.58301 13.292 7.60498 13.2861 7.62402 13.2729L8.27441 12.854C8.88086 12.4644 9.58545 12.2578 10.3047 12.2578H13.6562C13.9155 12.2578 14.125 12.0483 14.125 11.7891V3.46875C14.125 3.20947 13.9155 3 13.6562 3ZM4.82031 11.2031H2.05469V4.05469H4.82031C5.33887 4.05469 5.84277 4.20264 6.27783 4.48242L6.99268 4.94092L7.09375 5.00684V11.7744C6.39648 11.3994 5.61719 11.2031 4.82031 11.2031ZM13.0703 11.2031H10.3047C9.50781 11.2031 8.72852 11.3994 8.03125 11.7744V5.00684L8.13232 4.94092L8.84717 4.48242C9.28223 4.20264 9.78613 4.05469 10.3047 4.05469H13.0703V11.2031ZM5.87646 5.92969H3.15479C3.09766 5.92969 3.05078 5.97949 3.05078 6.03955V6.69873C3.05078 6.75879 3.09766 6.80859 3.15479 6.80859H5.875C5.93213 6.80859 5.979 6.75879 5.979 6.69873V6.03955C5.98047 5.97949 5.93359 5.92969 5.87646 5.92969ZM9.14453 6.03955V6.69873C9.14453 6.75879 9.19141 6.80859 9.24854 6.80859H11.9688C12.0259 6.80859 12.0728 6.75879 12.0728 6.69873V6.03955C12.0728 5.97949 12.0259 5.92969 11.9688 5.92969H9.24854C9.19141 5.92969 9.14453 5.97949 9.14453 6.03955ZM5.87646 7.98047H3.15479C3.09766 7.98047 3.05078 8.03027 3.05078 8.09033V8.74951C3.05078 8.80957 3.09766 8.85938 3.15479 8.85938H5.875C5.93213 8.85938 5.979 8.80957 5.979 8.74951V8.09033C5.98047 8.03027 5.93359 7.98047 5.87646 7.98047ZM11.9702 7.98047H9.24854C9.19141 7.98047 9.14453 8.03027 9.14453 8.09033V8.74951C9.14453 8.80957 9.19141 8.85938 9.24854 8.85938H11.9688C12.0259 8.85938 12.0728 8.80957 12.0728 8.74951V8.09033C12.0742 8.03027 12.0273 7.98047 11.9702 7.98047Z" fill="#6B7280"/>
</svg>
