<svg width="16" height="16" viewBox="0 0 16 16" fill="none" xmlns="http://www.w3.org/2000/svg">
<g clip-path="url(#clip0_6012_13462)">
<path d="M15.1455 13.5579L11.4461 9.85846C12.2843 8.62502 12.6324 7.1233 12.4223 5.64687C12.2121 4.17044 11.4589 2.82545 10.3098 1.87486C9.16076 0.924265 7.69845 0.436405 6.2088 0.506656C4.71915 0.576907 3.30925 1.20022 2.25473 2.25473C1.20022 3.30925 0.576907 4.71915 0.506656 6.2088C0.436405 7.69845 0.924265 9.16076 1.87486 10.3098C2.82545 11.4589 4.17044 12.2121 5.64687 12.4223C7.1233 12.6324 8.62502 12.2843 9.85846 11.4461L13.5579 15.1455C13.6607 15.2559 13.7848 15.3444 13.9226 15.4058C14.0603 15.4672 14.2091 15.5002 14.3599 15.5029C14.5108 15.5055 14.6606 15.4778 14.8004 15.4213C14.9403 15.3648 15.0674 15.2807 15.174 15.174C15.2807 15.0674 15.3648 14.9403 15.4213 14.8004C15.4778 14.6606 15.5055 14.5108 15.5029 14.3599C15.5002 14.2091 15.4672 14.0603 15.4058 13.9226C15.3444 13.7848 15.2559 13.6607 15.1455 13.5579ZM6.48851 10.9818C5.59983 10.9818 4.7311 10.7182 3.99219 10.2245C3.25328 9.7308 2.67737 9.02904 2.33728 8.20801C1.9972 7.38697 1.90822 6.48353 2.08159 5.61192C2.25496 4.74031 2.6829 3.93969 3.3113 3.3113C3.93969 2.6829 4.74031 2.25496 5.61192 2.08159C6.48353 1.90822 7.38697 1.9972 8.20801 2.33728C9.02904 2.67737 9.7308 3.25328 10.2245 3.99219C10.7182 4.7311 10.9818 5.59983 10.9818 6.48851C10.9818 7.6802 10.5084 8.82308 9.66573 9.66573C8.82308 10.5084 7.6802 10.9818 6.48851 10.9818Z" fill="white"/>
</g>
<defs>
<clipPath id="clip0_6012_13462">
<rect width="15" height="15" fill="white" transform="translate(0.5 0.5)"/>
</clipPath>
</defs>
</svg>
