<svg width="20" height="20" viewBox="0 0 20 20" fill="none" xmlns="http://www.w3.org/2000/svg">
<path d="M15.1762 6.706C16.4758 6.706 17.5292 5.65253 17.5292 4.353C17.5292 3.05347 16.4758 2 15.1762 2C13.8767 2 12.8232 3.05347 12.8232 4.353C12.8232 5.65253 13.8767 6.706 15.1762 6.706Z" fill="black"/>
<path d="M15.1762 17.9999C16.4758 17.9999 17.5292 16.9465 17.5292 15.6469C17.5292 14.3474 16.4758 13.2939 15.1762 13.2939C13.8767 13.2939 12.8232 14.3474 12.8232 15.6469C12.8232 16.9465 13.8767 17.9999 15.1762 17.9999Z" fill="black"/>
<path d="M4.8237 12.3535C6.12323 12.3535 7.1767 11.3 7.1767 10.0005C7.1767 8.70094 6.12323 7.64746 4.8237 7.64746C3.52418 7.64746 2.4707 8.70094 2.4707 10.0005C2.4707 11.3 3.52418 12.3535 4.8237 12.3535Z" fill="black"/>
<path d="M4.82324 9.99954L15.1762 4.35254L4.82324 9.99954ZM4.82324 9.99954L15.1762 15.6465L4.82324 9.99954Z" fill="black"/>
<path d="M15.1762 4.35254L4.82324 9.99954L15.1762 15.6465" stroke="black"/>
</svg>
